<svg width="25" height="25" viewBox="0 0 25 25" fill="none" xmlns="http://www.w3.org/2000/svg">
<path fill-rule="evenodd" clip-rule="evenodd" d="M20 18.114C20 22.1052 17.0087 25 12.256 25C10.8904 24.959 9.54612 24.632 8.30069 24.0377C7.05527 23.4434 5.93343 22.5937 5 21.5377L6.58881 19.6716C8.07704 21.1758 9.82702 22.6377 12.224 22.6377C14.8872 22.6377 17.7574 21.0524 17.7574 18.2036C17.7574 15.8377 15.988 14.2947 12.2685 13.0785C8.03018 11.7025 5.88013 9.83638 5.88013 6.32564C5.87785 2.8512 8.64398 0 12.5897 0C15.5353 0 17.379 1.33362 19.1724 3.03756L17.6099 4.88068C16.0371 3.40062 14.5386 2.39738 12.6995 2.39738C10.418 2.39617 8.1662 3.95972 8.1662 6.20825C8.1662 8.2462 9.26808 9.54473 13.1612 10.8106C16.7275 11.9772 20 13.7852 20 18.1116V18.114Z" fill="#333333"/>
</svg>
