<svg width="64" height="49" viewBox="0 0 64 49" fill="none" xmlns="http://www.w3.org/2000/svg">
<circle cx="21.5" cy="27.5" r="21.5" fill="#FF9900"/>
<g clip-path="url(#clip0_406480_4121)">
<path fill-rule="evenodd" clip-rule="evenodd" d="M31.889 5.58656C31.9862 5.41721 32.2017 5.3591 32.3703 5.45675L52.9875 17.3974C53.1561 17.4951 53.214 17.7116 53.1168 17.8809C53.0195 18.0502 52.804 18.1084 52.6354 18.0107L32.0182 6.07C31.8496 5.97235 31.7917 5.7559 31.889 5.58656Z" fill="black"/>
<path fill-rule="evenodd" clip-rule="evenodd" d="M39.9738 0.666143C40.7428 0.222265 41.615 -0.0114136 42.5028 -0.0114136C43.3907 -0.0114136 44.2629 0.222265 45.0318 0.666143C45.0321 0.666284 45.0323 0.666425 45.0326 0.666566L61.4759 10.0647C62.2443 10.5084 62.8825 11.1464 63.3265 11.9147C63.7705 12.683 64.0048 13.5546 64.0057 14.442V33.2389C64.0048 34.1264 63.7705 34.9979 63.3265 35.7662C62.8825 36.5346 62.2443 37.1726 61.4759 37.6163L61.4745 37.6171L45.0326 47.0144C45.0324 47.0145 45.0323 47.0145 45.0322 47.0146C44.2631 47.4586 43.3908 47.6924 42.5028 47.6924C41.6149 47.6924 40.7425 47.4586 39.9735 47.0146C39.9734 47.0145 39.9732 47.0145 39.9731 47.0144L23.5311 37.6171L23.5297 37.6163C22.7614 37.1726 22.1232 36.5346 21.6791 35.7662C21.2351 34.9979 21.0009 34.1264 21 33.2389V14.442C21.0009 13.5546 21.2351 12.683 21.6791 11.9147C22.1232 11.1464 22.7614 10.5084 23.5297 10.0647L23.5311 10.0639L39.9731 0.666566C39.9733 0.666425 39.9736 0.666284 39.9738 0.666143ZM42.5028 0.711517C41.7416 0.711517 40.9937 0.91194 40.3345 1.29264L40.3331 1.29344L23.8911 10.6907C23.8909 10.6909 23.8906 10.691 23.8904 10.6912C23.2321 11.0715 22.6853 11.6182 22.3049 12.2765C21.9243 12.935 21.7236 13.682 21.7228 14.4426V33.2384C21.7236 33.999 21.9243 34.746 22.3049 35.4045C22.6853 36.0627 23.2321 36.6094 23.8903 36.9897C23.8906 36.9899 23.8909 36.99 23.8911 36.9902L40.3345 46.3883C40.9937 46.769 41.7416 46.9694 42.5028 46.9694C43.2641 46.9694 44.0119 46.769 44.6712 46.3883L44.6726 46.3875L61.1145 36.9902C61.1148 36.99 61.1151 36.9899 61.1154 36.9897C61.7736 36.6094 62.3203 36.0627 62.7008 35.4045C63.0813 34.7459 63.2821 33.9988 63.2829 33.2382V14.4427C63.2821 13.6821 63.0813 12.935 62.7008 12.2765C62.3203 11.6182 61.7735 11.0715 61.1153 10.6912C61.115 10.691 61.1148 10.6909 61.1145 10.6907L44.6726 1.29344L44.6712 1.29264C44.0119 0.91194 43.2641 0.711517 42.5028 0.711517Z" fill="black"/>
<path fill-rule="evenodd" clip-rule="evenodd" d="M21.7707 12.0905C21.8693 11.9219 22.0875 11.8642 22.2581 11.9618L42.322 23.4412L62.386 11.9618C62.5565 11.8642 62.7747 11.9219 62.8734 12.0905C62.972 12.2592 62.9137 12.475 62.7432 12.5726L42.5006 24.1542C42.3901 24.2174 42.2539 24.2174 42.1434 24.1542L21.9008 12.5726C21.7303 12.475 21.672 12.2592 21.7707 12.0905Z" fill="black"/>
<path fill-rule="evenodd" clip-rule="evenodd" d="M42.3223 23.479C42.5219 23.479 42.6837 23.6372 42.6837 23.8323V46.9776C42.6837 47.1727 42.5219 47.3309 42.3223 47.3309C42.1227 47.3309 41.9609 47.1727 41.9609 46.9776V23.8323C41.9609 23.6372 42.1227 23.479 42.3223 23.479Z" fill="black"/>
</g>
<defs>
<clipPath id="clip0_406480_4121">
<rect width="43" height="48" fill="white" transform="translate(21)"/>
</clipPath>
</defs>
</svg>
