<svg width="188" height="42" viewBox="0 0 188 42" fill="none" xmlns="http://www.w3.org/2000/svg">
<path d="M3.02575 34.5033L0.314875 30.6662H2.27314L4.11449 33.411L5.97045 30.6662H7.9141L5.19591 34.5033L8.05293 38.5105H6.10928L4.11449 35.5742L2.127 38.5105H0.18335L3.02575 34.5033Z" fill="white"/>
<path d="M8.24291 30.6662H10.1135L11.7576 35.1132C12.006 35.7468 12.1716 36.3426 12.2544 36.9005H12.3129C12.3567 36.6405 12.4371 36.326 12.554 35.9572C12.6709 35.5837 13.2896 33.82 14.41 30.6662H16.2659L12.8098 39.5531C12.1814 41.1844 11.134 42 9.66776 42C9.2878 42 8.91759 41.9598 8.55711 41.8794V40.5602C8.81529 40.617 9.11 40.6453 9.44125 40.6453C10.2694 40.6453 10.8515 40.1796 11.1876 39.2481L11.4872 38.5105L8.24291 30.6662Z" fill="white"/>
<path d="M25.2462 41.2837H23.646V38.5105H18.1073V41.2837H16.5217V37.2197H17.1793C17.7541 36.4206 18.2096 35.456 18.5457 34.326C18.8867 33.1912 19.0889 31.9712 19.1522 30.6662H24.0624V37.2197H25.2462V41.2837ZM22.3745 37.2197V31.9429H20.6355C20.5429 32.9169 20.3481 33.8768 20.0509 34.8224C19.7587 35.7681 19.4006 36.5672 18.9768 37.2197H22.3745Z" fill="white"/>
<path d="M33.9122 34.5742C33.9122 35.8556 33.5737 36.8556 32.8965 37.5743C32.2194 38.293 31.2768 38.6524 30.0688 38.6524C29.3137 38.6524 28.6463 38.4869 28.0667 38.1559C27.487 37.8249 27.0412 37.3497 26.7295 36.7303C26.4177 36.1109 26.2618 35.3922 26.2618 34.5742C26.2618 33.3023 26.598 32.3093 27.2702 31.5953C27.9424 30.8814 28.8899 30.5244 30.1126 30.5244C31.2817 30.5244 32.2073 30.8908 32.8892 31.6237C33.5712 32.3519 33.9122 33.3354 33.9122 34.5742ZM28.0301 34.5742C28.0301 36.3851 28.7194 37.2906 30.098 37.2906C31.4619 37.2906 32.1439 36.3851 32.1439 34.5742C32.1439 32.7822 31.4571 31.8861 30.0834 31.8861C29.3624 31.8861 28.8388 32.1178 28.5124 32.5812C28.1909 33.0446 28.0301 33.7089 28.0301 34.5742Z" fill="white"/>
<path d="M39.8747 34.4749V30.6662H41.4749V34.4749L44.5877 30.6662H46.3998L43.2213 34.4607L46.6847 38.5105H44.7923L41.4749 34.5316V38.5105H39.8747V34.5316L36.5646 38.5105H34.6794L38.1356 34.4607L34.9644 30.6662H36.7765L39.8747 34.4749Z" fill="white"/>
<path d="M51.4635 38.6524C50.2067 38.6524 49.2227 38.2977 48.5115 37.5885C47.8051 36.8745 47.452 35.8934 47.452 34.6451C47.452 33.3637 47.7808 32.3566 48.4384 31.6237C49.096 30.8908 49.9997 30.5244 51.1493 30.5244C52.2161 30.5244 53.0588 30.8388 53.6775 31.4677C54.2962 32.0965 54.6055 32.9618 54.6055 34.0635V34.9643H49.2203C49.2446 35.7255 49.4565 36.3118 49.856 36.7232C50.2554 37.1298 50.818 37.3332 51.5439 37.3332C52.0213 37.3332 52.4645 37.2906 52.8737 37.2055C53.2878 37.1157 53.7311 36.9691 54.2036 36.7658V38.1204C53.7847 38.3143 53.3609 38.4514 52.9322 38.5318C52.5035 38.6122 52.0139 38.6524 51.4635 38.6524ZM51.1493 31.7868C50.6037 31.7868 50.1653 31.9547 49.834 32.2904C49.5077 32.6261 49.3128 33.1155 49.2495 33.7586H52.9176C52.9078 33.1108 52.7471 32.6214 52.4353 32.2904C52.1236 31.9547 51.6949 31.7868 51.1493 31.7868Z" fill="white"/>
<path d="M59.8153 38.6524C58.5926 38.6524 57.6622 38.3072 57.0241 37.6169C56.3908 36.9218 56.0742 35.9265 56.0742 34.6309C56.0742 33.3117 56.4054 32.2975 57.0679 31.5883C57.7353 30.879 58.6974 30.5244 59.9542 30.5244C60.8066 30.5244 61.5739 30.6781 62.2558 30.9854L61.7371 32.3259C61.0112 32.0516 60.4121 31.9145 59.9395 31.9145C58.5415 31.9145 57.8425 32.8153 57.8425 34.6167C57.8425 35.4962 58.0154 36.1582 58.3612 36.6026C58.712 37.0424 59.2235 37.2622 59.8957 37.2622C60.6605 37.2622 61.3839 37.0778 62.0659 36.709V38.163C61.759 38.3379 61.4302 38.4632 61.0794 38.5389C60.7336 38.6145 60.3122 38.6524 59.8153 38.6524Z" fill="white"/>
<path d="M70.0377 30.6662V31.9712H67.4072V38.5105H65.6828V31.9712H63.0523V30.6662H70.0377Z" fill="white"/>
<path d="M78.6088 32.6734C78.6088 33.6002 78.051 34.1605 76.9355 34.3543V34.4111C77.559 34.482 78.0364 34.6735 78.3677 34.9856C78.6989 35.2976 78.8645 35.7019 78.8645 36.1984C78.8645 36.9407 78.5723 37.5128 77.9877 37.9147C77.408 38.3119 76.5628 38.5105 75.4522 38.5105H71.5941V30.6662H75.4376C77.5517 30.6662 78.6088 31.3353 78.6088 32.6734ZM77.1036 36.0991C77.1036 35.7208 76.9526 35.4537 76.6505 35.2976C76.3485 35.1369 75.8955 35.0565 75.2914 35.0565H73.3113V37.2764H75.3353C76.5141 37.2764 77.1036 36.884 77.1036 36.0991ZM76.8917 32.8153C76.8917 32.5032 76.765 32.2786 76.5117 32.1415C76.2633 31.9996 75.8906 31.9287 75.3937 31.9287H73.3113V33.8153H75.138C75.7128 33.8153 76.1488 33.7444 76.4459 33.6025C76.7431 33.4559 76.8917 33.1935 76.8917 32.8153Z" fill="white"/>
<path d="M84.1694 38.6524C82.9126 38.6524 81.9286 38.2977 81.2174 37.5885C80.511 36.8745 80.1579 35.8934 80.1579 34.6451C80.1579 33.3637 80.4867 32.3566 81.1443 31.6237C81.8019 30.8908 82.7056 30.5244 83.8552 30.5244C84.922 30.5244 85.7647 30.8388 86.3834 31.4677C87.002 32.0965 87.3114 32.9618 87.3114 34.0635V34.9643H81.9261C81.9505 35.7255 82.1624 36.3118 82.5619 36.7232C82.9613 37.1298 83.5239 37.3332 84.2498 37.3332C84.7271 37.3332 85.1704 37.2906 85.5796 37.2055C85.9937 37.1157 86.437 36.9691 86.9095 36.7658V38.1204C86.4906 38.3143 86.0667 38.4514 85.6381 38.5318C85.2094 38.6122 84.7198 38.6524 84.1694 38.6524ZM83.8552 31.7868C83.3096 31.7868 82.8712 31.9547 82.5399 32.2904C82.2136 32.6261 82.0187 33.1155 81.9554 33.7586H85.6235C85.6137 33.1108 85.453 32.6214 85.1412 32.2904C84.8294 31.9547 84.4008 31.7868 83.8552 31.7868Z" fill="white"/>
<path d="M90.9795 30.6662V33.8153H94.7864V30.6662H96.5035V38.5105H94.7864V35.1274H90.9795V38.5105H89.2623V30.6662H90.9795Z" fill="white"/>
<path d="M100.683 30.6662V33.8153H104.49V30.6662H106.207V38.5105H104.49V35.1274H100.683V38.5105H98.9659V30.6662H100.683Z" fill="white"/>
<path d="M113.726 38.5105L113.383 37.4183H113.324C112.934 37.8958 112.542 38.2221 112.148 38.397C111.753 38.5673 111.246 38.6524 110.628 38.6524C109.834 38.6524 109.213 38.4443 108.765 38.0282C108.321 37.6121 108.1 37.0235 108.1 36.2622C108.1 35.4537 108.409 34.8437 109.028 34.4323C109.646 34.021 110.589 33.7964 111.855 33.7586L113.251 33.716V33.2975C113.251 32.7963 113.129 32.4228 112.886 32.1769C112.647 31.9263 112.274 31.801 111.768 31.801C111.354 31.801 110.957 31.8601 110.577 31.9783C110.197 32.0965 109.831 32.236 109.481 32.3968L108.925 31.2053C109.364 30.983 109.844 30.8152 110.365 30.7017C110.886 30.5835 111.378 30.5244 111.841 30.5244C112.869 30.5244 113.643 30.7419 114.164 31.1769C114.69 31.6119 114.954 32.2951 114.954 33.2266V38.5105H113.726ZM111.169 37.3757C111.792 37.3757 112.291 37.2079 112.666 36.8721C113.046 36.5317 113.236 36.0565 113.236 35.4466V34.7657L112.199 34.8082C111.39 34.8366 110.801 34.969 110.431 35.2054C110.065 35.4371 109.883 35.7941 109.883 36.2764C109.883 36.6263 109.99 36.8982 110.204 37.092C110.418 37.2811 110.74 37.3757 111.169 37.3757Z" fill="white"/>
<path d="M118.176 38.5105H116.254L118.505 35.2976C117.959 35.1463 117.53 34.8768 117.219 34.4891C116.907 34.0966 116.751 33.612 116.751 33.0351C116.751 32.2928 117.024 31.7136 117.569 31.2975C118.115 30.8766 118.86 30.6662 119.805 30.6662H123.488V38.5105H121.764V35.4891H120.134L118.176 38.5105ZM118.424 33.0493C118.424 33.4512 118.58 33.7538 118.892 33.9571C119.209 34.1557 119.632 34.255 120.163 34.255H121.764V31.9287H119.893C119.425 31.9287 119.062 32.0256 118.804 32.2195C118.551 32.4133 118.424 32.69 118.424 33.0493Z" fill="white"/>
<path d="M135.055 30.6662V31.9712H131.548V38.5105H129.83V30.6662H135.055Z" fill="white"/>
<path d="M141.668 38.5105L141.324 37.4183H141.266C140.876 37.8958 140.484 38.2221 140.089 38.397C139.695 38.5673 139.188 38.6524 138.57 38.6524C137.776 38.6524 137.154 38.4443 136.706 38.0282C136.263 37.6121 136.041 37.0235 136.041 36.2622C136.041 35.4537 136.351 34.8437 136.969 34.4323C137.588 34.021 138.531 33.7964 139.797 33.7586L141.193 33.716V33.2975C141.193 32.7963 141.071 32.4228 140.827 32.1769C140.589 31.9263 140.216 31.801 139.709 31.801C139.295 31.801 138.898 31.8601 138.518 31.9783C138.138 32.0965 137.773 32.236 137.422 32.3968L136.867 31.2053C137.305 30.983 137.785 30.8152 138.307 30.7017C138.828 30.5835 139.32 30.5244 139.783 30.5244C140.81 30.5244 141.585 30.7419 142.106 31.1769C142.632 31.6119 142.895 32.2951 142.895 33.2266V38.5105H141.668ZM139.11 37.3757C139.734 37.3757 140.233 37.2079 140.608 36.8721C140.988 36.5317 141.178 36.0565 141.178 35.4466V34.7657L140.141 34.8082C139.332 34.8366 138.743 34.969 138.372 35.2054C138.007 35.4371 137.824 35.7941 137.824 36.2764C137.824 36.6263 137.931 36.8982 138.146 37.092C138.36 37.2811 138.682 37.3757 139.11 37.3757Z" fill="white"/>
<path d="M151.934 38.5105H150.202V31.9712H147.974C147.837 33.6545 147.652 34.969 147.418 35.9147C147.189 36.8603 146.887 37.5507 146.512 37.9857C146.142 38.4207 145.66 38.6382 145.065 38.6382C144.69 38.6382 144.376 38.5862 144.123 38.4821V37.1771C144.303 37.2433 144.483 37.2764 144.664 37.2764C145.16 37.2764 145.55 36.735 145.833 35.6522C146.12 34.5647 146.344 32.9027 146.505 30.6662H151.934V38.5105Z" fill="white"/>
<path d="M157.926 38.6524C156.669 38.6524 155.685 38.2977 154.974 37.5885C154.267 36.8745 153.914 35.8934 153.914 34.6451C153.914 33.3637 154.243 32.3566 154.901 31.6237C155.558 30.8908 156.462 30.5244 157.611 30.5244C158.678 30.5244 159.521 30.8388 160.14 31.4677C160.758 32.0965 161.068 32.9618 161.068 34.0635V34.9643H155.682C155.707 35.7255 155.919 36.3118 156.318 36.7232C156.718 37.1298 157.28 37.3332 158.006 37.3332C158.483 37.3332 158.927 37.2906 159.336 37.2055C159.75 37.1157 160.193 36.9691 160.666 36.7658V38.1204C160.247 38.3143 159.823 38.4514 159.394 38.5318C158.966 38.6122 158.476 38.6524 157.926 38.6524ZM157.611 31.7868C157.066 31.7868 156.627 31.9547 156.296 32.2904C155.97 32.6261 155.775 33.1155 155.712 33.7586H159.38C159.37 33.1108 159.209 32.6214 158.897 32.2904C158.586 31.9547 158.157 31.7868 157.611 31.7868Z" fill="white"/>
<path d="M167.118 38.6524C166.095 38.6524 165.301 38.2954 164.736 37.5814H164.633C164.702 38.2434 164.736 38.6453 164.736 38.7871V42H163.019V30.6662H164.407C164.446 30.8128 164.526 31.1627 164.648 31.7159H164.736C165.272 30.9216 166.075 30.5244 167.147 30.5244C168.155 30.5244 168.94 30.879 169.5 31.5883C170.065 32.2975 170.347 33.2928 170.347 34.5742C170.347 35.8556 170.06 36.8556 169.485 37.5743C168.915 38.293 168.126 38.6524 167.118 38.6524ZM166.701 31.8861C166.019 31.8861 165.52 32.08 165.203 32.4677C164.892 32.8554 164.736 33.4749 164.736 34.326V34.5742C164.736 35.5293 164.892 36.222 165.203 36.6523C165.515 37.0778 166.024 37.2906 166.731 37.2906C167.325 37.2906 167.783 37.0542 168.104 36.5814C168.426 36.1085 168.587 35.4347 168.587 34.56C168.587 33.6805 168.426 33.0162 168.104 32.567C167.788 32.1131 167.32 31.8861 166.701 31.8861Z" fill="white"/>
<path d="M175.872 38.6524C174.615 38.6524 173.631 38.2977 172.92 37.5885C172.213 36.8745 171.86 35.8934 171.86 34.6451C171.86 33.3637 172.189 32.3566 172.846 31.6237C173.504 30.8908 174.408 30.5244 175.557 30.5244C176.624 30.5244 177.467 30.8388 178.086 31.4677C178.704 32.0965 179.014 32.9618 179.014 34.0635V34.9643H173.628C173.653 35.7255 173.865 36.3118 174.264 36.7232C174.663 37.1298 175.226 37.3332 175.952 37.3332C176.429 37.3332 176.873 37.2906 177.282 37.2055C177.696 37.1157 178.139 36.9691 178.612 36.7658V38.1204C178.193 38.3143 177.769 38.4514 177.34 38.5318C176.912 38.6122 176.422 38.6524 175.872 38.6524ZM175.557 31.7868C175.012 31.7868 174.573 31.9547 174.242 32.2904C173.916 32.6261 173.721 33.1155 173.658 33.7586H177.326C177.316 33.1108 177.155 32.6214 176.843 32.2904C176.532 31.9547 176.103 31.7868 175.557 31.7868Z" fill="white"/>
<path d="M181.79 38.5105H179.868L182.119 35.2976C181.573 35.1463 181.145 34.8768 180.833 34.4891C180.521 34.0966 180.365 33.612 180.365 33.0351C180.365 32.2928 180.638 31.7136 181.184 31.2975C181.729 30.8766 182.475 30.6662 183.42 30.6662H187.102V38.5105H185.378V35.4891H183.748L181.79 38.5105ZM182.039 33.0493C182.039 33.4512 182.194 33.7538 182.506 33.9571C182.823 34.1557 183.247 34.255 183.778 34.255H185.378V31.9287H183.507C183.04 31.9287 182.677 32.0256 182.419 32.2195C182.165 32.4133 182.039 32.69 182.039 33.0493Z" fill="white"/>
<path d="M0 22.7342H12.6452C17.6323 22.7342 20.1851 20.542 20.1851 16.3686V16.3037C20.1851 13.2021 18.5621 11.3184 15.4346 10.7825V10.4902C18.055 10.0031 19.4243 8.3467 19.4243 5.65108V5.56988C19.4243 1.89993 17.0407 0 12.3748 0H0V22.7342ZM4.9871 9.30479V3.21527H10.8871C13.2707 3.21527 14.4541 4.22207 14.4541 6.20319V6.26815C14.4541 8.28175 13.2707 9.30479 10.8871 9.30479H4.9871ZM4.9871 19.5027V12.2602H11.0392C13.6596 12.2602 14.9613 13.4619 14.9613 15.8165V15.8815C14.9613 18.2848 13.6596 19.5027 11.0392 19.5027H4.9871Z" fill="white"/>
<path d="M24.8827 0V22.7342H29.8022V0H24.8827Z" fill="white"/>
<path d="M40.0956 23.1564C44.0683 23.1564 46.9592 21.4514 48.0242 18.5609L48.3623 18.6421C47.7199 21.7924 48.3961 23.1564 52.2844 23.1564C52.7746 23.1564 53.2649 23.1077 53.6706 23.0427L54.2454 20.2334L53.4001 20.2172C52.4703 20.201 52.1998 19.9899 52.1998 18.8369V11.0261C52.1998 7.16128 49.5288 5.31006 43.8317 5.31006C37.7795 5.31006 34.7197 7.59972 34.9732 11.562L39.8251 11.9517C39.6222 9.33727 41.0085 8.15184 43.7302 8.15184C46.1646 8.15184 47.3142 9.01249 47.3142 10.9774V11.9355L42.513 12.7799C37.7119 13.6405 34.5337 15.102 34.5337 18.6745V18.7232C34.5337 21.5488 36.5285 23.1564 40.0956 23.1564ZM42.0566 20.0061C40.3999 20.0061 39.5039 19.4378 39.5039 18.2686V18.2361C39.5039 16.5635 41.0761 15.8815 44.1867 15.2969L47.3142 14.7123V15.508C47.3142 18.1224 44.8629 20.0061 42.0566 20.0061Z" fill="white"/>
<path d="M58.3852 22.7342H63.3047V14.8097C63.3047 10.9774 65.1812 8.60652 68.2918 8.60652C70.6078 8.60652 71.7574 9.75947 71.7574 11.9679V22.7342H76.6768V10.8312C76.6768 7.25871 74.496 5.37502 70.4388 5.37502C66.7534 5.37502 64.2345 6.93394 62.7468 10.1817L62.4087 10.0355C63.0849 8.10312 63.3216 6.95017 63.3216 5.68355H58.3852V22.7342Z" fill="white"/>
<path d="M91.3149 23.1402C97.1135 23.1402 100.359 20.8992 100.85 16.5635L95.8794 16.0276C95.6765 18.7557 94.1212 20.136 91.3318 20.136C88.2043 20.136 86.5814 18.2523 86.5814 14.5337V13.738C86.5814 10.1005 88.2212 8.26551 91.2811 8.26551C94.1043 8.26551 95.5751 9.77571 95.7948 12.7961L100.697 12.2602C100.309 7.66468 97.1811 5.27759 91.298 5.27759C84.9078 5.27759 81.5436 8.28175 81.5436 14.0303V14.2414C81.5436 20.0873 84.8739 23.1402 91.3149 23.1402Z" fill="white"/>
<path d="M105.75 22.7342H110.67V14.8097C110.67 10.9774 112.529 8.62276 115.657 8.62276C117.973 8.62276 119.122 9.75947 119.122 11.9679V22.7342H124.042V10.8312C124.042 7.25871 121.844 5.37502 117.804 5.37502C114.084 5.37502 111.582 6.93393 110.112 10.1654L109.757 10.0355C110.416 8.21679 110.653 6.86898 110.67 5.26135V0H105.75V22.7342Z" fill="white"/>
<path d="M134.251 23.1564C138.223 23.1564 141.114 21.4514 142.179 18.5609L142.517 18.6421C141.875 21.7924 142.551 23.1564 146.439 23.1564C146.93 23.1564 147.42 23.1077 147.826 23.0427L148.4 20.2334L147.555 20.2172C146.625 20.201 146.355 19.9899 146.355 18.8369V11.0261C146.355 7.16128 143.684 5.31006 137.987 5.31006C131.935 5.31006 128.875 7.59972 129.128 11.562L133.98 11.9517C133.777 9.33727 135.163 8.15184 137.885 8.15184C140.32 8.15184 141.469 9.01249 141.469 10.9774V11.9355L136.668 12.7799C131.867 13.6405 128.689 15.102 128.689 18.6745V18.7232C128.689 21.5488 130.684 23.1564 134.251 23.1564ZM136.212 20.0061C134.555 20.0061 133.659 19.4378 133.659 18.2686V18.2361C133.659 16.5635 135.231 15.8815 138.342 15.2969L141.469 14.7123V15.508C141.469 18.1224 139.018 20.0061 136.212 20.0061Z" fill="white"/>
<path d="M152.54 22.7342H157.46V15.6054C157.46 11.156 158.897 9.51589 162.65 9.25607L165.067 9.07745L164.492 5.14768C160.52 5.43997 158.677 6.64164 156.851 10.1817L156.53 10.0355C157.324 7.76211 157.51 6.85274 157.477 5.68355H152.54V22.7342Z" fill="white"/>
<path d="M175.935 23.0427C179.587 23.0427 181.971 21.4189 183.171 18.4797L183.526 18.5933C182.951 20.3796 182.647 21.7924 182.63 22.7342H187.6V0H182.681V4.62804C182.681 6.4143 182.934 7.85954 183.543 9.82443L183.205 9.95434C182.004 7.03137 179.604 5.34254 175.935 5.34254C170.864 5.34254 168.193 8.31423 168.193 13.9978V14.4037C168.193 20.0711 170.864 23.0427 175.935 23.0427ZM177.795 20.1198C174.752 20.1198 173.163 18.2523 173.163 14.5661V13.8192C173.163 10.1167 174.752 8.23303 177.795 8.23303C180.973 8.23303 182.681 10.2142 182.681 13.9003V14.4849C182.681 18.1549 180.973 20.1198 177.795 20.1198Z" fill="white"/>
</svg>
